<svg width="1280" height="244" viewBox="0 0 1280 244" fill="none" xmlns="http://www.w3.org/2000/svg" xmlns:xlink="http://www.w3.org/1999/xlink">
<g clip-path="url(#clip0_27_8)">
<path d="M1274.7 164.044L1294.16 160.477L1286.55 168.472L1294.94 174.827L1286.58 180.944L1296.18 187.044L1293.67 193.161L1294.19 199.267L1292.61 205.363L1292.04 211.993L1288.77 218.628L1289.88 225.242L1292.73 231.845L1284.13 238.459L1289.12 245.063L1281.76 251.661L-7.85666 244.676L1.03105 238.131L3.97252 231.581L0.113838 225.03L0.725313 218.48L-2.79602 211.934L-3.24936 205.379L-2.33214 198.833L-4.51454 192.283L1.9588 185.727L1.47385 179.176L-10.0074 172.621L-7.70906 166.065L-11.378 159.504L2.08533 152.943L-1.64683 146.382L3.66678 139.815L5.17439 133.243L-5.86401 126.666L1.02051 120.1L-10.7981 113.539L-7.24518 106.978L2.44383 100.417L-8.59466 93.861L-3.63947 87.3104L1.7269 80.7652L3.63517 74.2147L-6.8656 67.6695L-10.5556 61.1295L2.1064 54.5843L-5.57935 48.0497L-9.53294 41.515L-5.15762 34.9751L-9.83868 28.4404L-7.50869 21.9058L-9.72277 15.3711L-11.0617 8.83647L-2.30053 2.30183L-2.97523 -4L8.274 -1.15334L19.207 2.40236L31.7953 4.55588L39.3334 10.8683L48.8432 15.4928L59.6497 19.0803L74.726 19.1173L83.1183 24.7207L98.4476 24.5249L108.137 29.0066L119.892 31.8056L131.236 34.8904L141.199 39.1022L148.99 45.1077L162.77 46.1395L176.929 47.1184L185.216 39.2292L201.431 43.1764L212.564 39.5784L223.782 36.1021L236.012 34.1602L246.164 29.1336L257.983 33.938L264.425 36.155L275.758 39.4726L288.241 42.2558L296.539 46.8697L304.393 51.6318L310.571 57.1294L314.62 63.5741L325.141 67.1668L338.246 65.1244L353.65 66.9816L365.394 62.6111L379.511 62.3518L389.264 54.5631L406.269 59.2564L418.699 56.124L430.107 55.288L443.602 52.9493L457.645 53.0975L466.195 59.9707L480.787 59.3676L489.495 66.0451L503.696 65.9234L514.904 69.4791L524.624 74.892L537.571 76.273L549.347 79.0879L563.549 78.9609L578.636 77.6699L590.38 80.4477L601.166 84.5167L614.808 85.0511L620.638 95.2049L635.915 93.7075L649.927 93.7869L662.452 95.7023L671.698 101.618L682.114 106.1L696.537 105.639L706.416 110.819L719.795 111.645L730.359 115.941L741.471 119.539L753.226 122.338L768.187 121.185L780.005 123.941L795.735 121.91L801.913 131.603L815.609 133.656L829.747 131.63L842.577 127.979L855.577 128.963L868.629 131.455L881.628 132.349L894.396 128.682L907.332 128.841L920.331 129.942L933.215 129.571L945.93 125.471L959.045 129.577L971.728 125.476L984.928 131.381L997.706 128.291L1010.46 124.444L1023.38 129.021L1035.64 130.249L1046.47 134.672L1059.26 135.217L1071.19 137.371L1085.19 135.524L1095.97 139.937L1110.24 137.519L1121.61 142.175L1133.32 146.17L1148.68 142.958L1159.5 148.577L1172.57 149.837L1184.63 153.017L1200.25 149.271L1214.42 148.36L1225.51 153.361L1237.27 157.049L1248.6 161.689L1261.44 163.213L1274.7 164.044Z" fill="url(#pattern0)"/>
<path d="M1274.7 164.044L1294.16 160.477L1286.55 168.472L1294.94 174.827L1286.58 180.944L1296.18 187.044L1293.67 193.161L1294.19 199.267L1292.61 205.363L1292.04 211.993L1288.77 218.628L1289.88 225.242L1292.73 231.845L1284.13 238.459L1289.12 245.063L1281.76 251.661L-7.85666 244.676L1.03105 238.131L3.97252 231.581L0.113838 225.03L0.725313 218.48L-2.79602 211.934L-3.24936 205.379L-2.33214 198.833L-4.51454 192.283L1.9588 185.727L1.47385 179.176L-10.0074 172.621L-7.70906 166.065L-11.378 159.504L2.08533 152.943L-1.64683 146.382L3.66678 139.815L5.17439 133.243L-5.86401 126.666L1.02051 120.1L-10.7981 113.539L-7.24518 106.978L2.44383 100.417L-8.59466 93.861L-3.63947 87.3104L1.7269 80.7652L3.63517 74.2147L-6.8656 67.6695L-10.5556 61.1295L2.1064 54.5843L-5.57935 48.0497L-9.53294 41.515L-5.15762 34.9751L-9.83868 28.4404L-7.50869 21.9058L-9.72277 15.3711L-11.0617 8.83647L-2.30053 2.30183L-2.97523 -4L8.274 -1.15334L19.207 2.40236L31.7953 4.55588L39.3334 10.8683L48.8432 15.4928L59.6497 19.0803L74.726 19.1173L83.1183 24.7207L98.4476 24.5249L108.137 29.0066L119.892 31.8056L131.236 34.8904L141.199 39.1022L148.99 45.1077L162.77 46.1395L176.929 47.1184L185.216 39.2292L201.431 43.1764L212.564 39.5784L223.782 36.1021L236.012 34.1602L246.164 29.1336L257.983 33.938L264.425 36.155L275.758 39.4726L288.241 42.2558L296.539 46.8697L304.393 51.6318L310.571 57.1294L314.62 63.5741L325.141 67.1668L338.246 65.1244L353.65 66.9816L365.394 62.6111L379.511 62.3518L389.264 54.5631L406.269 59.2564L418.699 56.124L430.107 55.288L443.602 52.9493L457.645 53.0975L466.195 59.9707L480.787 59.3676L489.495 66.0451L503.696 65.9234L514.904 69.4791L524.624 74.892L537.571 76.273L549.347 79.0879L563.549 78.9609L578.636 77.6699L590.38 80.4477L601.166 84.5167L614.808 85.0511L620.638 95.2049L635.915 93.7075L649.927 93.7869L662.452 95.7023L671.698 101.618L682.114 106.1L696.537 105.639L706.416 110.819L719.795 111.645L730.359 115.941L741.471 119.539L753.226 122.338L768.187 121.185L780.005 123.941L795.735 121.91L801.913 131.603L815.609 133.656L829.747 131.63L842.577 127.979L855.577 128.963L868.629 131.455L881.628 132.349L894.396 128.682L907.332 128.841L920.331 129.942L933.215 129.571L945.93 125.471L959.045 129.577L971.728 125.476L984.928 131.381L997.706 128.291L1010.46 124.444L1023.38 129.021L1035.64 130.249L1046.47 134.672L1059.26 135.217L1071.19 137.371L1085.19 135.524L1095.97 139.937L1110.24 137.519L1121.61 142.175L1133.32 146.17L1148.68 142.958L1159.5 148.577L1172.57 149.837L1184.63 153.017L1200.25 149.271L1214.42 148.36L1225.51 153.361L1237.27 157.049L1248.6 161.689L1261.44 163.213L1274.7 164.044Z" fill="#D9D9D9" fill-opacity="0.15" style="mix-blend-mode:color-burn"/>
<g filter="url(#filter0_d_27_8)">
<path d="M1274.81 223.816L1294.29 220.265L1282.06 228.267L1292.31 235.448V244H-12.7487L-13.2394 226.722L-13.7088 220.186L-25.0373 213.656L-22.7758 207.125L-26.392 200.59L-13.1007 194.059L-16.7915 187.524L-11.554 180.983L-10.0606 174.442L-20.9517 167.896L-14.1568 161.355L-25.8159 154.808L-22.3172 148.262L-12.7487 141.7L-23.6506 135.148L-18.7543 128.597L-13.4634 122.051L-11.5753 115.504L-21.9331 108.969L-25.5813 102.428L-13.09 95.8922L-20.6638 89.3618L-24.5679 82.8315L-20.2477 76.3064L-24.8773 69.776L-22.5838 63.2563L-24.7599 56.7365L-26.0826 50.2114L-17.4316 43.6969L-17.8262 37.1719L-19.0637 30.6574L-18.4983 24L-4.7803 26.0851L4.00941 32.3138L14.6233 36.8808L26.3678 40.3947L42.0912 40.363L51.6169 45.8825L67.5644 45.6179L78.3169 50.0315L90.9148 52.7463L103.182 55.7575L114.223 59.9064L123.204 65.8388L137.712 66.7913L148.027 73.0942L163.782 67.2994L177.703 73.5863L191.837 72.1045L205.939 70.7498L220.009 70.9668L234.153 68.0085L244.767 74.7506L253.888 77.5183L266.326 80.9952L279.852 83.9269L289.399 88.7374L298.53 93.6907L306.082 99.4114L313.048 106.524L327.214 103.222L340.505 101.348L355.834 103.312L367.834 99.1574L382.043 99.041L392.251 91.5316L409.031 96.2732L419.858 93.3997L429.085 97.1147L445.544 95.9822L459.753 96.9241L467.295 104.132L482.165 104.359L489.877 111.382L504.31 112.065L515.116 116.182L524.033 122.024L536.941 124.109L548.472 127.544L562.851 128.205L578.361 127.793L589.882 131.201L600.154 135.789L613.915 137.085L618.128 147.352L633.905 146.749L648.114 147.627L660.498 150.21L668.894 156.523L678.729 161.497L693.471 161.873L702.612 167.499L716.053 169.065L726.048 173.86L736.726 178.009L748.204 181.417L763.607 181.147L775.16 184.518L791.438 183.422L796.078 193.25L809.86 196.054L824.431 194.123L837.435 190.572L850.577 191.535L863.783 193.975L876.914 194.853L889.864 191.292L902.942 191.456L916.084 192.541L929.13 192.186L942.016 188.19L955.264 192.207L968.118 188.217L981.441 193.991L994.381 190.99L1007.31 187.248L1020.37 191.715L1032.77 192.816L1043.89 197.044L1056.76 197.467L1068.87 199.468L1082.85 197.557L1093.93 201.775L1108.14 199.288L1119.81 203.744L1131.78 207.549L1147.05 204.284L1158.22 209.676L1171.41 210.803L1183.72 213.804L1199.21 210.015L1213.4 209.009L1224.81 213.799L1236.83 217.297L1248.44 221.737L1261.44 223.113L1274.81 223.816Z" fill="#FEFAF1"/>
</g>
</g>
<defs>
<pattern id="pattern0" patternContentUnits="objectBoundingBox" width="1" height="1">
<use xlink:href="#image0_27_8" transform="matrix(0.000355114 0 0 0.0018162 0 -1.76002)"/>
</pattern>
<filter id="filter0_d_27_8" x="-30.392" y="24" width="1328.68" height="228" filterUnits="userSpaceOnUse" color-interpolation-filters="sRGB">
<feFlood flood-opacity="0" result="BackgroundImageFix"/>
<feColorMatrix in="SourceAlpha" type="matrix" values="0 0 0 0 0 0 0 0 0 0 0 0 0 0 0 0 0 0 127 0" result="hardAlpha"/>
<feOffset dy="4"/>
<feGaussianBlur stdDeviation="2"/>
<feComposite in2="hardAlpha" operator="out"/>
<feColorMatrix type="matrix" values="0 0 0 0 0 0 0 0 0 0 0 0 0 0 0 0 0 0 0.25 0"/>
<feBlend mode="normal" in2="BackgroundImageFix" result="effect1_dropShadow_27_8"/>
<feBlend mode="normal" in="SourceGraphic" in2="effect1_dropShadow_27_8" result="shape"/>
</filter>
<clipPath id="clip0_27_8">
<rect width="1280" height="244" fill="white" transform="matrix(1 0 0 -1 0 244)"/>
</clipPath>
</defs>
</svg>
