<svg width="800" height="210" viewBox="0 0 800 210" fill="none" xmlns="http://www.w3.org/2000/svg">
<path d="M53.5449 208.746C48.1129 208.746 43.9419 207.097 41.0319 203.799C38.1219 200.501 36.1819 196.427 35.2119 191.577C33.4659 183.817 31.4289 174.117 29.1009 162.477C26.9669 150.643 24.6389 138.033 22.1169 124.647C19.5949 111.067 17.0729 97.681 14.5509 84.489C12.2229 71.103 10.0889 58.978 8.14887 48.114C6.20887 37.056 4.65687 28.229 3.49287 21.633C2.32887 15.037 1.74687 11.739 1.74687 11.739C1.16487 8.441 1.16487 6.20999 1.74687 5.046C2.32887 3.88199 4.75387 3.29999 9.02187 3.29999H36.3759L50.9259 98.166C52.4779 107.672 53.8359 117.566 54.9999 127.848C56.3579 138.13 57.6189 147.83 58.7829 156.948C59.9469 166.066 60.9169 173.826 61.6929 180.228C62.2749 173.826 63.0509 166.066 64.0209 156.948C64.9909 147.83 66.0579 138.13 67.2219 127.848C68.5799 117.566 69.9379 107.672 71.2959 98.166L83.8089 12.03C84.1969 8.92599 84.8759 6.69499 85.8459 5.33699C86.8159 3.97899 88.7559 3.29999 91.6659 3.29999H120.475L82.0629 207C77.2129 207.582 72.7509 207.97 68.6769 208.164C64.7969 208.552 59.7529 208.746 53.5449 208.746ZM145.187 207V17.559C145.187 12.709 145.672 9.31398 146.642 7.37399C147.612 5.43399 150.425 4.26999 155.081 3.882C159.737 3.49399 167.497 3.29999 178.361 3.29999V201.18C178.361 203.12 177.876 204.478 176.906 205.254C175.936 206.03 173.123 206.515 168.467 206.709C164.005 206.903 156.245 207 145.187 207ZM286.854 207L256.008 129.012C254.262 124.356 252.419 119.021 250.479 113.007C248.733 106.993 246.987 100.688 245.241 94.092C243.689 87.496 242.234 81.094 240.876 74.886C239.518 68.678 238.257 63.052 237.093 58.008C236.123 52.964 235.347 48.987 234.765 46.077C234.183 42.973 233.892 41.421 233.892 41.421L214.686 22.215L216.141 3.29999H242.04L272.304 79.833C274.244 84.877 276.184 90.6 278.124 97.002C280.064 103.21 281.81 109.612 283.362 116.208C285.108 122.61 286.66 128.818 288.018 134.832C289.376 140.846 290.54 146.278 291.51 151.128C292.48 155.978 293.256 159.858 293.838 162.768C294.42 165.484 294.711 166.842 294.711 166.842L314.499 188.085L312.171 207H286.854ZM210.321 207V9.12C210.321 5.23999 212.261 3.29999 216.141 3.29999L242.913 9.12L237.966 58.299C238.548 62.373 239.033 66.544 239.421 70.812C239.809 75.08 240.197 79.445 240.585 83.907C240.973 88.175 241.264 92.443 241.458 96.711C241.846 100.785 242.137 104.859 242.331 108.933C242.525 113.007 242.622 116.984 242.622 120.864C242.816 124.55 242.913 128.042 242.913 131.34V201.18C242.913 203.12 242.428 204.478 241.458 205.254C240.488 206.03 237.772 206.515 233.31 206.709C228.848 206.903 221.185 207 210.321 207ZM312.171 207L285.399 201.18L289.764 145.308C289.182 140.846 288.697 136.578 288.309 132.504C287.921 128.236 287.533 124.162 287.145 120.282C286.951 116.402 286.66 112.619 286.272 108.933C286.078 105.247 285.884 101.658 285.69 98.166C285.69 94.48 285.593 90.891 285.399 87.399C285.399 83.907 285.399 80.415 285.399 76.923V9.12C285.399 7.17999 285.884 5.82199 286.854 5.046C287.824 4.27 290.54 3.78499 295.002 3.59098C299.658 3.39698 307.321 3.29999 317.991 3.29999V201.18C317.991 205.06 316.051 207 312.171 207ZM395.597 209.91C389.001 209.91 383.084 209.037 377.846 207.291C372.608 205.739 368.049 202.926 364.169 198.852C360.289 194.778 357.088 189.055 354.566 181.683C352.044 174.311 350.104 164.902 348.746 153.456C347.582 142.01 347 128.139 347 111.843C347 92.831 348.164 76.729 350.492 63.537C352.82 50.345 355.924 39.675 359.804 31.527C363.878 23.185 368.437 16.783 373.481 12.321C378.525 7.66499 383.763 4.56099 389.195 3.00899C394.627 1.26299 399.962 0.389989 405.2 0.389989C413.542 0.389989 419.653 1.26299 423.533 3.00899C427.413 4.56099 429.935 6.69499 431.099 9.41099C432.263 11.933 432.845 14.649 432.845 17.559C432.845 21.439 432.36 25.125 431.39 28.617C430.42 31.915 429.353 34.825 428.189 37.347C427.025 36.377 425.667 35.601 424.115 35.019C422.563 34.243 420.817 33.661 418.877 33.273C417.131 32.691 415.191 32.4 413.057 32.4C409.759 32.4 406.558 33.079 403.454 34.437C400.35 35.601 397.44 37.832 394.724 41.13C392.008 44.428 389.68 48.987 387.74 54.807C385.8 60.627 384.248 67.999 383.084 76.923C381.92 85.847 381.338 96.614 381.338 109.224C381.338 121.834 381.726 132.31 382.502 140.652C383.472 148.994 384.83 155.59 386.576 160.44C388.322 165.096 390.65 168.491 393.56 170.625C396.47 172.565 399.962 173.535 404.036 173.535C408.498 173.535 412.669 173.147 416.549 172.371C420.623 171.595 424.018 170.528 426.734 169.17C427.898 171.692 428.868 174.699 429.644 178.191C430.614 181.489 431.099 184.884 431.099 188.376C431.099 192.838 429.644 196.718 426.734 200.016C424.018 203.314 419.944 205.739 414.512 207.291C409.274 209.037 402.969 209.91 395.597 209.91ZM459.092 207V9.12C459.092 9.12 459.383 8.14999 459.965 6.20998C460.547 4.26999 462.196 3.29999 464.912 3.29999H534.752C534.752 12.03 534.655 18.432 534.461 22.506C534.267 26.58 533.782 29.296 533.006 30.654C532.23 31.818 530.872 32.4 528.932 32.4H491.684V177.9H532.715C532.715 187.018 532.618 193.614 532.424 197.688C532.23 201.762 531.745 204.381 530.969 205.545C530.193 206.515 528.835 207 526.895 207H459.092ZM461.42 111.552V81.87H526.895C526.895 94.092 526.604 102.143 526.022 106.023C525.634 109.709 524.082 111.552 521.366 111.552H461.42ZM637.418 207L606.572 129.012C604.826 124.356 602.983 119.021 601.043 113.007C599.297 106.993 597.551 100.688 595.805 94.092C594.253 87.496 592.798 81.094 591.44 74.886C590.082 68.678 588.821 63.052 587.657 58.008C586.687 52.964 585.911 48.987 585.329 46.077C584.747 42.973 584.456 41.421 584.456 41.421L565.25 22.215L566.705 3.29999H592.604L622.868 79.833C624.808 84.877 626.748 90.6 628.688 97.002C630.628 103.21 632.374 109.612 633.926 116.208C635.672 122.61 637.224 128.818 638.582 134.832C639.94 140.846 641.104 146.278 642.074 151.128C643.044 155.978 643.82 159.858 644.402 162.768C644.984 165.484 645.275 166.842 645.275 166.842L665.063 188.085L662.735 207H637.418ZM560.885 207V9.12C560.885 5.23999 562.825 3.29999 566.705 3.29999L593.477 9.12L588.53 58.299C589.112 62.373 589.597 66.544 589.985 70.812C590.373 75.08 590.761 79.445 591.149 83.907C591.537 88.175 591.828 92.443 592.022 96.711C592.41 100.785 592.701 104.859 592.895 108.933C593.089 113.007 593.186 116.984 593.186 120.864C593.38 124.55 593.477 128.042 593.477 131.34V201.18C593.477 203.12 592.992 204.478 592.022 205.254C591.052 206.03 588.336 206.515 583.874 206.709C579.412 206.903 571.749 207 560.885 207ZM662.735 207L635.963 201.18L640.328 145.308C639.746 140.846 639.261 136.578 638.873 132.504C638.485 128.236 638.097 124.162 637.709 120.282C637.515 116.402 637.224 112.619 636.836 108.933C636.642 105.247 636.448 101.658 636.254 98.166C636.254 94.48 636.157 90.891 635.963 87.399C635.963 83.907 635.963 80.415 635.963 76.923V9.12C635.963 7.17999 636.448 5.82199 637.418 5.046C638.388 4.27 641.104 3.78499 645.566 3.59098C650.222 3.39698 657.885 3.29999 668.555 3.29999V201.18C668.555 205.06 666.615 207 662.735 207ZM730.156 207V6.20998C730.156 6.20998 730.35 6.20998 730.738 6.20998C731.32 6.20998 733.066 6.20998 735.976 6.20998H756.928C759.838 6.20998 761.487 6.20998 761.875 6.20998C762.457 6.20998 762.748 6.20998 762.748 6.20998V201.18C762.748 203.12 762.263 204.478 761.293 205.254C760.323 206.03 757.51 206.515 752.854 206.709C748.392 206.903 740.826 207 730.156 207ZM694.654 33.855V9.12C694.654 5.23999 696.594 3.29999 700.474 3.29999H799.414V28.035C799.414 30.363 798.929 31.915 797.959 32.691C797.183 33.467 795.728 33.855 793.594 33.855H694.654Z" fill="#FFCB5A"/>
</svg>
